<svg width="26" height="24" viewBox="0 0 26 24" fill="none" xmlns="http://www.w3.org/2000/svg">
<path d="M18.1343 10.9999H10.0383L13.5583 7.70994C13.7591 7.52164 13.872 7.26624 13.872 6.99994C13.872 6.73364 13.7591 6.47825 13.5583 6.28994C13.3574 6.10164 13.085 5.99585 12.8009 5.99585C12.5169 5.99585 12.2445 6.10164 12.0436 6.28994L6.71026 11.2899C6.61315 11.385 6.53703 11.4972 6.48626 11.6199C6.37958 11.8634 6.37958 12.1365 6.48626 12.3799C6.53703 12.5027 6.61315 12.6148 6.71026 12.7099L12.0436 17.7099C12.1428 17.8037 12.2607 17.8781 12.3907 17.9288C12.5207 17.9796 12.6601 18.0057 12.8009 18.0057C12.9417 18.0057 13.0812 17.9796 13.2111 17.9288C13.3411 17.8781 13.4591 17.8037 13.5583 17.7099C13.6582 17.617 13.7376 17.5064 13.7917 17.3845C13.8459 17.2627 13.8738 17.132 13.8738 16.9999C13.8738 16.8679 13.8459 16.7372 13.7917 16.6154C13.7376 16.4935 13.6582 16.3829 13.5583 16.2899L10.0383 12.9999H18.1343C18.4172 12.9999 18.6885 12.8946 18.8885 12.707C19.0886 12.5195 19.2009 12.2652 19.2009 11.9999C19.2009 11.7347 19.0886 11.4804 18.8885 11.2928C18.6885 11.1053 18.4172 10.9999 18.1343 10.9999Z" fill="#424866"/>
</svg>
