<svg width="402" height="874" viewBox="0 0 402 874" fill="none" xmlns="http://www.w3.org/2000/svg">
<g clip-path="url(#clip0_134_22328)">
<path d="M467.286 685.729C483.683 637.145 486.749 529.207 422.819 485.779C358.89 442.351 245.43 461.306 202.963 485.779C160.496 510.252 4.42902 520.677 27.1352 441.783C58.0627 334.322 71.9655 292.154 -5.46857 318.354C-82.9026 344.553 -49.1618 274.552 -135.884 286.332C-205.261 295.757 -275.614 399.281 -335 278.181" stroke="#3DA0A7"/>
<path d="M30.7662 79.5364C49.6495 106.217 27.1125 129.231 10.4822 130.076C-49.3221 132.459 -35.0597 109.457 -29.7083 71.9253C-24.3569 34.3941 11.8829 52.8558 30.7662 79.5364Z" stroke="#3DA0A7"/>
<path d="M197.443 -71.129C204.614 -64.8587 215.808 -42.3521 203.215 -2.48784C187.473 47.3425 156.078 149.992 225.891 156.904C295.704 163.815 348.928 141.299 339.181 115.409C329.434 89.5186 273.108 108.387 290.933 179.663C308.758 250.94 402.659 287.805 473.014 237.108" stroke="#3DA0A7"/>
<path d="M-26.4355 -3.5H107.865C118.889 -3.5 130.302 -2.65605 142.203 -1.0625C153.812 58.2324 141.327 106.148 111.593 138.96C81.793 171.844 34.5975 189.638 -23.2656 188.443H-23.2705C-31.5691 188.349 -40.1573 187.878 -48.9395 186.941C-51.1455 174.799 -52.2077 163.12 -52.5 151.81V21.7451C-52.5 7.77689 -40.7906 -3.5 -26.4355 -3.5Z" stroke="#DFFAA1"/>
<path d="M297.079 -28.5518C348.175 -35.5661 388.86 -23.2841 414.712 2.76562C440.555 28.8071 451.661 68.6941 443.431 117.083C394.061 122.945 352.421 110.538 325.66 84.7051C298.906 58.8792 286.949 19.5649 297.079 -28.5518Z" stroke="#DFFAA1"/>
<path d="M360.836 505.047C399.561 499.371 431.522 509.654 451.948 530.509C472.366 551.355 481.327 582.834 473.929 619.711C435.509 625.876 402.026 615.727 380.762 594.812C359.504 573.905 350.395 542.18 360.836 505.047Z" stroke="#DFFAA1"/>
</g>
<defs>
<clipPath id="clip0_134_22328">
<rect width="402" height="874" fill="white"/>
</clipPath>
</defs>
</svg>
