<svg width="18" height="18" viewBox="0 0 18 18" fill="none" xmlns="http://www.w3.org/2000/svg">
<path d="M6.75 15.0001C3.92175 14.3491 2.25 11.7579 2.25 9.3826C2.25 6.5581 4.7775 3.76735 6.552 2.15635C7.01675 1.73416 7.62211 1.50024 8.25 1.50024C8.87789 1.50024 9.48325 1.73416 9.948 2.15635C11.0782 3.18235 12.4305 4.6876 13.3132 6.3751" stroke="#014838" stroke-width="1.5" stroke-linecap="round"/>
<path d="M13.7227 11.625C12.5977 12.375 10.7227 13.875 9.22266 16.5M10.7227 14.25C8.72466 9.85504 12.8489 8.42704 15.9164 8.26204C16.2869 8.24179 16.4714 8.23204 16.6049 8.36029C16.7377 8.48779 16.7294 8.67154 16.7144 9.03679C16.5877 12.0765 15.2189 16.2053 10.7227 14.25Z" stroke="#014838" stroke-width="1.5" stroke-linecap="round" stroke-linejoin="round"/>
</svg>
