<svg width="18" height="18" viewBox="0 0 18 18" fill="none" xmlns="http://www.w3.org/2000/svg">
<path d="M13.2 9.5C12.9978 9.5 12.798 9.51214 12.6 9.53036V9.5C12.6 4.71268 10.8264 1 9.3 1C7.7736 1 6 4.71268 6 9.5V12.5357H3V14.3571C3.00111 15.3229 3.38075 16.2489 4.05564 16.9318C4.73053 17.6147 5.64556 17.9989 6.6 18H8.4C10.1498 17.9979 11.8273 17.2936 13.0646 16.0416C14.3019 14.7896 14.9979 13.0921 15 11.3214V9.5H13.2ZM7.2 9.5H8.4V8.28571H7.2438C7.29439 7.46852 7.40773 6.65655 7.5828 5.85714H9V4.64286H7.92C8.406 3.18207 9.009 2.35332 9.3 2.22279C9.696 2.40007 10.6704 3.86389 11.139 6.46429H10.2V7.67857H11.3064C11.3687 8.28367 11.3999 8.89163 11.4 9.5V9.75864C9.86893 10.2019 8.54647 11.1876 7.674 12.5357H7.2V9.5ZM6.6 16.7857C5.96372 16.7849 5.35374 16.5288 4.90382 16.0735C4.45391 15.6182 4.20079 15.001 4.2 14.3571V13.75H7.0584C6.75619 14.5232 6.60067 15.3471 6.6 16.1786V16.7857ZM13.8 11.3214C13.7984 12.7702 13.229 14.1591 12.2166 15.1835C11.2043 16.2079 9.83168 16.7841 8.4 16.7857H7.8V16.1786C7.80159 14.7298 8.37103 13.3409 9.38338 12.3165C10.3957 11.2921 11.7683 10.7159 13.2 10.7143H13.8V11.3214Z" fill="#014838"/>
</svg>
