<svg width="40" height="40" viewBox="0 0 40 40" fill="none" xmlns="http://www.w3.org/2000/svg">
<rect width="40" height="40" rx="8" fill="#E6EBF2"/>
<g clip-path="url(#clip0_129_19754)">
<path d="M18.8005 14.4846L18.085 14.2596V14.2596L18.8005 14.4846ZM16.8575 17.7453L17.3077 17.1455L16.8575 17.7453ZM17.3162 19.2035L18.0316 19.4286L17.3162 19.2035ZM19.2592 20.6617L18.809 20.0619V20.0619L19.2592 20.6617ZM20.7434 20.6617L21.1936 20.0619L20.7434 20.6617ZM22.6864 19.2035L21.971 19.4286V19.4286L22.6864 19.2035ZM23.1451 17.7453L22.6949 17.1455L23.1451 17.7453ZM21.2021 14.4846L21.9176 14.2596V14.2596L21.2021 14.4846ZM22.9072 28.8408L22.427 29.4169V29.4169L22.9072 28.8408ZM22.0466 28.1235L22.5268 27.5474V27.5474L22.0466 28.1235ZM17.956 28.1235L17.4758 27.5474H17.4758L17.956 28.1235ZM17.0954 28.8408L17.5756 29.4169H17.5756L17.0954 28.8408ZM25.501 22.1199L24.7511 22.1072L24.751 22.1144L24.751 22.1215L25.501 22.1199ZM25.5013 22.1008L24.939 21.6045V21.6045L25.5013 22.1008ZM14.5017 22.1012L15.0639 21.6048V21.6048L14.5017 22.1012ZM17.5997 15.3859V16.1359C18.4875 16.1359 19.2527 15.5466 19.5159 14.7097L18.8005 14.4846L18.085 14.2596C18.0102 14.4974 17.8058 14.6359 17.5997 14.6359V15.3859ZM16.8575 17.7453L17.3077 17.1455C17.1014 16.9906 17.04 16.7485 17.1143 16.5121C17.1881 16.2775 17.3652 16.1359 17.5997 16.1359V15.3859V14.6359C15.6018 14.6359 14.885 17.2026 16.4073 18.3452L16.8575 17.7453ZM17.3162 19.2035L18.0316 19.4286C18.2937 18.5953 18.0108 17.6732 17.3077 17.1455L16.8575 17.7453L16.4073 18.3452C16.5893 18.4817 16.6767 18.737 16.6008 18.9785L17.3162 19.2035ZM19.2592 20.6617L18.809 20.0619C18.6114 20.2102 18.3993 20.1927 18.2251 20.0619C18.0473 19.9285 17.9464 19.6996 18.0316 19.4286L17.3162 19.2035L16.6008 18.9785C16.308 19.9091 16.6838 20.7806 17.3247 21.2616C17.969 21.7452 18.9174 21.8559 19.7094 21.2616L19.2592 20.6617ZM20.7434 20.6617L21.1936 20.0619C20.4844 19.5296 19.5182 19.5296 18.809 20.0619L19.2592 20.6617L19.7094 21.2616C19.8851 21.1297 20.1175 21.1297 20.2933 21.2616L20.7434 20.6617ZM22.6864 19.2035L21.971 19.4286C22.0562 19.6996 21.9553 19.9285 21.7775 20.0619C21.6033 20.1927 21.3912 20.2102 21.1936 20.0619L20.7434 20.6617L20.2933 21.2616C21.0852 21.8559 22.0336 21.7452 22.6779 21.2616C23.3188 20.7806 23.6946 19.9091 23.4019 18.9785L22.6864 19.2035ZM23.1451 17.7453L22.6949 17.1455C21.9918 17.6732 21.7089 18.5953 21.971 19.4286L22.6864 19.2035L23.4019 18.9785C23.3259 18.737 23.4133 18.4817 23.5953 18.3452L23.1451 17.7453ZM22.4029 15.3859V16.1359C22.6374 16.1359 22.8145 16.2775 22.8883 16.5121C22.9626 16.7485 22.9012 16.9906 22.6949 17.1455L23.1451 17.7453L23.5953 18.3452C25.1176 17.2026 24.4008 14.6359 22.4029 14.6359V15.3859ZM21.2021 14.4846L20.4867 14.7097C20.7499 15.5466 21.5151 16.1359 22.4029 16.1359V15.3859V14.6359C22.1968 14.6359 21.9924 14.4974 21.9176 14.2596L21.2021 14.4846ZM21.2021 14.4846L21.9176 14.2596C21.3194 12.358 18.6832 12.358 18.085 14.2596L18.8005 14.4846L19.5159 14.7097C19.6737 14.208 20.3289 14.208 20.4867 14.7097L21.2021 14.4846ZM12.668 17.2501H13.418C13.418 13.6142 16.3654 10.6667 20.0013 10.6667V9.91675V9.16675C15.537 9.16675 11.918 12.7858 11.918 17.2501H12.668ZM20.0013 9.91675V10.6667C23.6372 10.6667 26.5846 13.6142 26.5846 17.2501H27.3346H28.0846C28.0846 12.7858 24.4656 9.16675 20.0013 9.16675V9.91675ZM25.5013 22.5984H24.7513V27.6805H25.5013H26.2513V22.5984H25.5013ZM14.5013 27.6805H15.2513V22.5984H14.5013H13.7513V27.6805H14.5013ZM22.9072 28.8408L23.3874 28.2646L22.5268 27.5474L22.0466 28.1235L21.5664 28.6996L22.427 29.4169L22.9072 28.8408ZM17.956 28.1235L17.4758 27.5474L16.6152 28.2646L17.0954 28.8408L17.5756 29.4169L18.4362 28.6996L17.956 28.1235ZM22.0466 28.1235L22.5268 27.5474C22.0535 27.1529 21.6463 26.8117 21.2813 26.5772C20.8982 26.3312 20.489 26.1532 20.0013 26.1532V26.9032V27.6532C20.0949 27.6532 20.2204 27.6786 20.4707 27.8393C20.739 28.0116 21.0637 28.2806 21.5664 28.6996L22.0466 28.1235ZM17.956 28.1235L18.4362 28.6996C18.9389 28.2806 19.2637 28.0116 19.5319 27.8393C19.7822 27.6786 19.9077 27.6532 20.0013 27.6532V26.9032V26.1532C19.5136 26.1532 19.1044 26.3312 18.7213 26.5772C18.3563 26.8117 17.9491 27.1529 17.4758 27.5474L17.956 28.1235ZM14.5013 27.6805H13.7513C13.7513 28.3713 13.7493 28.977 13.8167 29.4296C13.8827 29.8734 14.0549 30.4533 14.6525 30.7205L14.9587 30.0359L15.2649 29.3513C15.4051 29.4139 15.3486 29.5331 15.3003 29.2088C15.2533 28.8933 15.2513 28.4236 15.2513 27.6805H14.5013ZM17.0954 28.8408L16.6152 28.2646C16.0362 28.7473 15.6654 29.0538 15.3853 29.2265C15.0942 29.4059 15.1342 29.2928 15.2649 29.3513L14.9587 30.0359L14.6525 30.7205C15.2406 30.9836 15.7892 30.7395 16.1722 30.5035C16.5662 30.2607 17.0351 29.8674 17.5756 29.4169L17.0954 28.8408ZM25.5013 27.6805H24.7513C24.7513 28.4236 24.7493 28.8933 24.7023 29.2088C24.654 29.5331 24.5975 29.4139 24.7377 29.3513L25.0439 30.0359L25.3501 30.7205C25.9477 30.4533 26.1199 29.8734 26.186 29.4296C26.2533 28.977 26.2513 28.3713 26.2513 27.6805H25.5013ZM22.9072 28.8408L22.427 29.4169C22.9675 29.8674 23.4364 30.2607 23.8304 30.5035C24.2134 30.7395 24.762 30.9836 25.3501 30.7205L25.0439 30.0359L24.7377 29.3513C24.8684 29.2928 24.9084 29.4059 24.6173 29.2265C24.3372 29.0538 23.9664 28.7473 23.3874 28.2646L22.9072 28.8408ZM25.5013 22.5984H26.2513C26.2513 22.4294 26.2513 22.2693 26.251 22.1183L25.501 22.1199L24.751 22.1215C24.7513 22.2706 24.7513 22.429 24.7513 22.5984H25.5013ZM27.3346 17.2501H26.5846C26.5846 18.9202 25.9637 20.4435 24.939 21.6045L25.5013 22.1008L26.0636 22.5971C27.3209 21.1726 28.0846 19.2996 28.0846 17.2501H27.3346ZM25.5013 22.1008L24.939 21.6045C23.7316 22.9724 21.9675 23.8334 20.0013 23.8334V24.5834V25.3334C22.4157 25.3334 24.5835 24.274 26.0636 22.5971L25.5013 22.1008ZM25.501 22.1199L26.2509 22.1326L26.2512 22.1135L25.5013 22.1008L24.7514 22.0881L24.7511 22.1072L25.501 22.1199ZM14.5013 22.5984H15.2513C15.2513 22.4219 15.2513 22.2574 15.2517 22.1029L14.5017 22.1012L13.7517 22.0994C13.7513 22.256 13.7513 22.4223 13.7513 22.5984H14.5013ZM20.0013 24.5834V23.8334C18.0353 23.8334 16.2713 22.9726 15.0639 21.6048L14.5017 22.1012L13.9394 22.5975C15.4195 24.2742 17.5871 25.3334 20.0013 25.3334V24.5834ZM14.5017 22.1012L15.0639 21.6048C14.039 20.4438 13.418 18.9204 13.418 17.2501H12.668H11.918C11.918 19.2998 12.6819 21.173 13.9394 22.5975L14.5017 22.1012Z" fill="#2D264B"/>
</g>
<defs>
<clipPath id="clip0_129_19754">
<rect width="22" height="22" fill="white" transform="translate(9 9)"/>
</clipPath>
</defs>
</svg>
