<svg width="42" height="40" viewBox="0 0 42 40" fill="none" xmlns="http://www.w3.org/2000/svg">
<rect width="41.92" height="40" rx="8" fill="#E6EBF2"/>
<path d="M22.5893 27.9677C21.6399 28.6776 20.3601 28.6776 19.4107 27.9677C16.5894 25.858 11 21.0348 11 16.6944C11 13.8256 13.1053 11.5 16 11.5C17.5 11.5 19 12 21 14C23 12 24.5 11.5 26 11.5C28.8947 11.5 31 13.8256 31 16.6944C31 17.7827 30.6486 18.9014 30.0775 20" stroke="#141B34" stroke-width="1.5" stroke-linecap="round" stroke-linejoin="round"/>
<path d="M23 24H26.5M26.5 24H30M26.5 24V20.5M26.5 24V27.5" stroke="#141B34" stroke-width="1.5" stroke-linecap="round" stroke-linejoin="round"/>
</svg>
