<svg width="42" height="40" viewBox="0 0 42 40" fill="none" xmlns="http://www.w3.org/2000/svg">
<rect width="41.92" height="40" rx="8" fill="#E6EBF2"/>
<path d="M22.5 12.5C22.5 13.3284 21.8284 14 21 14C20.1716 14 19.5 13.3284 19.5 12.5C19.5 11.6716 21 10 21 10C21 10 22.5 11.6716 22.5 12.5Z" stroke="#141B34" stroke-width="1.5" stroke-linejoin="round"/>
<path d="M21 14V17" stroke="#141B34" stroke-width="1.5" stroke-linecap="round" stroke-linejoin="round"/>
<path d="M26.6667 22C28.2315 22 29.5 20.8807 29.5 19.5C29.5 18.1193 28.2315 17 26.6667 17H15.3333C13.7685 17 12.5 18.1193 12.5 19.5C12.5 20.8807 13.7685 22 15.3333 22C16.7041 22 17.9041 21.1411 18.1667 20C18.4292 21.1411 19.6293 22 21 22C22.3707 22 23.5708 21.1411 23.8333 20C24.0959 21.1411 25.2959 22 26.6667 22Z" stroke="#141B34" stroke-width="1.5" stroke-linejoin="round"/>
<path d="M14 22L14.5209 24.5796C15.0453 27.1768 15.3075 28.4754 16.1961 29.2377C17.0846 30 18.3361 30 20.839 30H21.161C23.6639 30 24.9154 30 25.8039 29.2377C26.6925 28.4754 26.9547 27.1768 27.4791 24.5796L28 22" stroke="#141B34" stroke-width="1.5" stroke-linecap="round" stroke-linejoin="round"/>
</svg>
