<svg width="42" height="40" viewBox="0 0 42 40" fill="none" xmlns="http://www.w3.org/2000/svg">
<rect width="41.92" height="40" rx="8" fill="#E6EBF2"/>
<path d="M13.3802 24.137C11.8352 22.591 11.0622 21.819 10.7752 20.816C10.4872 19.813 10.7332 18.748 11.2252 16.619L11.5082 15.391C11.9212 13.599 12.1282 12.703 12.7412 12.089C13.3542 11.475 14.2512 11.269 16.0432 10.856L17.2712 10.572C19.4012 10.081 20.4652 9.835 21.4682 10.122C22.4712 10.41 23.2432 11.183 24.7882 12.728L26.6182 14.558C29.3092 17.248 30.6522 18.592 30.6522 20.262C30.6522 21.933 29.3082 23.277 26.6192 25.966C23.9292 28.656 22.5852 30 20.9142 30C19.2442 30 17.8992 28.656 15.2102 25.967L13.3802 24.137Z" stroke="#0A2533" stroke-width="1.5"/>
<path d="M18.6743 18.2931C19.4553 17.5121 19.4553 16.2457 18.6743 15.4647C17.8932 14.6836 16.6269 14.6836 15.8459 15.4647C15.0648 16.2457 15.0648 17.5121 15.8459 18.2931C16.6269 19.0742 17.8932 19.0742 18.6743 18.2931Z" stroke="#0A2533" stroke-width="1.5"/>
<path d="M20.1934 26.5L27.1724 19.52" stroke="#0A2533" stroke-width="1.5" stroke-linecap="round"/>
</svg>
