<svg width="42" height="40" viewBox="0 0 42 40" fill="none" xmlns="http://www.w3.org/2000/svg">
<rect width="41.92" height="40" rx="8" fill="#E6EBF2"/>
<path d="M18.6006 14.1121C18.9225 13.296 20.0775 13.296 20.3994 14.1121L21.3103 16.4216C21.8999 17.9167 23.0833 19.1001 24.5784 19.6897L26.8879 20.6006C27.704 20.9225 27.704 22.0775 26.8879 22.3994L24.5784 23.3103C23.0833 23.8999 21.8999 25.0833 21.3103 26.5784L20.3994 28.8879C20.0775 29.704 18.9225 29.704 18.6006 28.8879L17.6897 26.5784C17.1001 25.0833 15.9167 23.8999 14.4216 23.3103L12.1121 22.3994C11.296 22.0775 11.296 20.9225 12.1121 20.6006L14.4216 19.6897C15.9167 19.1001 17.1001 17.9167 17.6897 16.4216L18.6006 14.1121Z" stroke="#141B34" stroke-width="1.5"/>
<path d="M27.1627 10.7295C27.2834 10.4235 27.7166 10.4235 27.8373 10.7295L28.1788 11.5956C28.4 12.1562 28.8438 12.6 29.4044 12.8211L30.2705 13.1627C30.5765 13.2834 30.5765 13.7166 30.2705 13.8373L29.4044 14.1788C28.8438 14.4 28.4 14.8438 28.1788 15.4044L27.8373 16.2705C27.7166 16.5765 27.2834 16.5765 27.1627 16.2705L26.8212 15.4044C26.6 14.8438 26.1562 14.4 25.5956 14.1788L24.7295 13.8373C24.4235 13.7166 24.4235 13.2834 24.7295 13.1627L25.5956 12.8211C26.1562 12.6 26.6 12.1562 26.8212 11.5956L27.1627 10.7295Z" stroke="#141B34" stroke-width="1.5"/>
</svg>
