<svg width="42" height="40" viewBox="0 0 42 40" fill="none" xmlns="http://www.w3.org/2000/svg">
<rect width="41.92" height="40" rx="8" fill="#E6EBF2"/>
<path d="M21 17C22.6569 17 24 15.6568 24 14C24 12.3432 22.6569 11 21 11C19.3431 11 18 12.3432 18 14C18 15.6568 19.3431 17 21 17Z" stroke="#141B34" stroke-width="1.5" stroke-linecap="round" stroke-linejoin="round"/>
<path d="M24.0708 17H17.9293C16.5584 17 15.873 17 15.357 17.3775C14.841 17.755 14.6243 18.4151 14.1908 19.7351L12.8772 23.7351C12.0882 26.1376 11.6938 27.3388 12.2835 28.1694C12.8733 29 14.1208 29 16.6157 29H25.3843C27.8792 29 29.1267 29 29.7165 28.1694C30.3062 27.3388 29.9118 26.1376 29.1228 23.7351L27.8092 19.7351C27.3757 18.4151 27.159 17.755 26.643 17.3775C26.127 17 25.4416 17 24.0708 17Z" stroke="#141B34" stroke-width="1.5" stroke-linecap="round" stroke-linejoin="round"/>
</svg>
