<svg width="42" height="40" viewBox="0 0 42 40" fill="none" xmlns="http://www.w3.org/2000/svg">
<rect width="41.92" height="40" rx="8" fill="#E6EBF2"/>
<path d="M21 21L26 25.5M21 21L16 25.5M21 21V16" stroke="#141B34" stroke-width="1.5"/>
<path d="M27.1915 24.4456C27.7081 24.1485 27.9664 24 28.25 24C28.5336 24 28.7919 24.1485 29.3085 24.4456L29.9415 24.8097C30.4581 25.1068 30.7164 25.2553 30.8582 25.5C31 25.7447 31 26.0418 31 26.6359V27.3641C31 27.9582 31 28.2553 30.8582 28.5C30.7164 28.7447 30.4581 28.8932 29.9415 29.1903L29.3085 29.5544C28.7919 29.8515 28.5336 30 28.25 30C27.9664 30 27.7081 29.8515 27.1915 29.5544L26.5585 29.1903C26.0419 28.8932 25.7836 28.7447 25.6418 28.5C25.5 28.2553 25.5 27.9582 25.5 27.3641V26.6359C25.5 26.0418 25.5 25.7447 25.6418 25.5C25.7836 25.2553 26.0419 25.1068 26.5585 24.8097L27.1915 24.4456Z" stroke="#141B34" stroke-width="1.5"/>
<path d="M12.6915 24.4456C13.2081 24.1485 13.4664 24 13.75 24C14.0336 24 14.2919 24.1485 14.8085 24.4456L15.4415 24.8097C15.9581 25.1068 16.2164 25.2553 16.3582 25.5C16.5 25.7447 16.5 26.0418 16.5 26.6359V27.3641C16.5 27.9582 16.5 28.2553 16.3582 28.5C16.2164 28.7447 15.9581 28.8932 15.4415 29.1903L14.8085 29.5544C14.2919 29.8515 14.0336 30 13.75 30C13.4664 30 13.2081 29.8515 12.6915 29.5544L12.0585 29.1903C11.5419 28.8932 11.2836 28.7447 11.1418 28.5C11 28.2553 11 27.9582 11 27.3641V26.6359C11 26.0418 11 25.7447 11.1418 25.5C11.2836 25.2553 11.5419 25.1068 12.0585 24.8097L12.6915 24.4456Z" stroke="#141B34" stroke-width="1.5"/>
<path d="M19.9415 10.4456C20.4581 10.1485 20.7164 10 21 10C21.2836 10 21.5419 10.1485 22.0585 10.4456L22.6915 10.8097C23.2081 11.1068 23.4664 11.2553 23.6082 11.5C23.75 11.7447 23.75 12.0418 23.75 12.6359V13.3641C23.75 13.9582 23.75 14.2553 23.6082 14.5C23.4664 14.7447 23.2081 14.8932 22.6915 15.1903L22.0585 15.5544C21.5419 15.8515 21.2836 16 21 16C20.7164 16 20.4581 15.8515 19.9415 15.5544L19.3085 15.1903C18.7919 14.8932 18.5336 14.7447 18.3918 14.5C18.25 14.2553 18.25 13.9582 18.25 13.3641V12.6359C18.25 12.0418 18.25 11.7447 18.3918 11.5C18.5336 11.2553 18.7919 11.1068 19.3085 10.8097L19.9415 10.4456Z" stroke="#141B34" stroke-width="1.5"/>
</svg>
