<svg width="69" height="37" viewBox="0 0 69 37" fill="none" xmlns="http://www.w3.org/2000/svg">
<path d="M8.09612 17.9254V25.8172C8.09612 26.944 9.0309 27.8564 10.187 27.8564C11.3431 27.8564 12.2779 26.9406 12.2779 25.8096V17.8926C12.2737 16.1746 11.7074 14.8637 10.8593 13.9168C11.8622 12.7068 12.2737 11.1915 12.2737 9.96798V6.00736C12.2737 1.60948 8.59002 0 6.13733 0H0.000976562V25.8122C0.000976562 26.9432 0.935782 27.8589 2.09187 27.8589C3.24795 27.8589 4.18276 26.9465 4.18276 25.8197V16.0174H6.11714C6.20465 16.0224 6.79194 16.0628 7.29258 16.3277C7.67121 16.527 8.09612 16.8339 8.09612 17.9237V17.9254ZM4.18276 11.8432V4.18094H6.14489C6.24586 4.18766 6.76417 4.23307 7.22779 4.45423C7.64007 4.65436 8.09694 4.95792 8.09694 6.06286V9.67703C8.08769 9.7729 8.09696 9.8696 8.09275 9.96462C8.08686 10.0622 8.03973 10.5608 7.81003 11.0065C7.6022 11.4034 7.28753 11.8432 6.13902 11.8432H4.18442H4.18276Z" fill="#038C6D"/>
<path d="M20.2809 0.00219727C15.7886 0.00219727 14.1445 3.60796 14.1445 6.00956V21.8546C14.1445 24.2553 15.7886 27.8619 20.2809 27.8619C24.7731 27.8619 26.4172 24.2553 26.4172 21.8546V6.00956C26.4172 3.6088 24.7731 0.00219727 20.2809 0.00219727ZM22.2354 21.7814V21.7881C22.2287 21.8865 22.1799 22.3953 21.9511 22.8401C21.7483 23.237 21.4294 23.6818 20.2809 23.6818C19.1324 23.6818 18.8488 23.269 18.6443 22.9015C18.3709 22.4154 18.3313 21.8462 18.3263 21.7621V6.07515C18.333 5.97676 18.3818 5.46802 18.6107 5.02319C18.8135 4.62628 19.1324 4.18145 20.2809 4.18145C21.4294 4.18145 21.7129 4.59349 21.9174 4.96096C22.2009 5.4697 22.2338 6.03142 22.2363 6.0844V21.7822L22.2354 21.7814Z" fill="#038C6D"/>
<path d="M40.5655 17.6848C40.5655 16.5303 39.6307 15.5952 38.4746 15.5952C37.3186 15.5952 36.3838 16.5303 36.3838 17.6848V21.7278C36.3838 21.7278 36.3661 22.2845 36.0994 22.8176C35.8966 23.2263 35.5777 23.6854 34.4284 23.6854C33.279 23.6854 32.9963 23.2742 32.7926 22.9068C32.5083 22.398 32.4763 21.8363 32.4738 21.7825V6.08128C32.4738 6.08128 32.4914 5.54058 32.7582 5.02343C32.9609 4.62653 33.2798 4.18085 34.4284 4.18085C35.5769 4.18085 35.8604 4.60467 36.064 4.98307C36.3484 5.50779 36.3804 6.08548 36.3829 6.14098V10.1781C36.3829 11.3327 37.3177 12.2678 38.4738 12.2678C39.6299 12.2678 40.5647 11.3327 40.5647 10.1781V6.1351C40.5647 3.68388 38.9206 0.00244141 34.4284 0.00244141C29.9361 0.00244141 28.292 3.6082 28.292 6.0098V21.8548C28.292 24.2556 29.9361 27.8622 34.4284 27.8622C38.9206 27.8622 40.5647 24.1807 40.5647 21.7295V17.6865L40.5655 17.6848Z" fill="#038C6D"/>
<path d="M52.6225 0.00219727C51.4673 0.00219727 50.5316 0.91457 50.5316 2.04137V11.8437H46.6183V2.04137C46.6183 0.91457 45.6835 0.00219727 44.5274 0.00219727C43.3713 0.00219727 42.4365 0.917933 42.4365 2.04894V25.8143C42.4365 26.9445 43.3671 27.8611 44.5232 27.8611C45.6793 27.8611 46.6141 26.9487 46.6141 25.8219V16.0196H50.5274L50.5308 25.8219C50.5308 26.9487 51.4665 27.8611 52.6217 27.8611C53.7769 27.8611 54.7126 26.9454 54.7126 25.8143V2.04894C54.7126 0.917933 53.7769 0.00219727 52.6217 0.00219727H52.6225Z" fill="#038C6D"/>
<path d="M62.7203 0.00219727C58.2239 0.00219727 56.584 3.61216 56.584 6.00956V25.8076C56.584 26.9378 57.5179 27.8619 58.6749 27.8619C59.8318 27.8619 60.7658 26.9453 60.7658 25.8228V16.0162H64.6749V25.8152C64.6749 26.942 65.6105 27.8544 66.7658 27.8544C67.921 27.8544 68.8525 26.9395 68.8567 25.8127V6.00956C68.8567 3.6088 67.2168 0.00219727 62.7203 0.00219727ZM64.6749 11.8361H60.7658V6.06001C60.7725 5.96247 60.8204 5.45877 61.0502 5.0173C61.2571 4.61788 61.5718 4.18145 62.7203 4.18145C63.8689 4.18145 64.1524 4.59013 64.3569 4.95423C64.6413 5.45961 64.6732 6.01629 64.6758 6.06926V11.837L64.6749 11.8361Z" fill="#038C6D"/>
<path d="M37.7721 36.5183V31.2762C37.7721 30.9701 37.5449 30.7422 37.2555 30.7422C37.0098 30.7422 36.8348 30.8818 36.7389 31.1534L35.3463 34.575L33.9631 31.1534C33.8579 30.8818 33.6745 30.7422 33.412 30.7422C33.0964 30.7422 32.8693 30.9785 32.8693 31.3022V36.5175C32.8163 37.0859 33.7973 37.0859 33.7536 36.5175V32.6409L34.9265 35.5025C35.014 35.7211 35.1452 35.8347 35.3203 35.8347C35.5037 35.8347 35.6265 35.7295 35.7056 35.5109L36.8878 32.6409V36.5175C36.844 37.0859 37.8251 37.0859 37.7721 36.5175V36.5183Z" fill="#038C6D"/>
<path d="M42.0457 31.618C42.2914 31.618 42.4572 31.4431 42.4572 31.1976C42.4572 30.952 42.2906 30.7864 42.0457 30.7864H39.6907C39.4105 30.7864 39.2178 30.9789 39.2178 31.2506V36.4397C39.2178 36.7197 39.4105 36.9123 39.6907 36.9123H42.0895C42.3343 36.9123 42.5009 36.7458 42.5009 36.4919C42.5009 36.2556 42.3343 36.0807 42.0895 36.0807H40.1542V34.1289H41.7218C41.9582 34.1289 42.1072 33.9717 42.1072 33.7354C42.1072 33.5168 41.9582 33.3503 41.7218 33.3503H40.1542V31.618H42.0457Z" fill="#038C6D"/>
<path d="M47.615 36.4834C47.615 36.396 47.5889 36.3085 47.5452 36.2118L46.6087 34.287C47.265 34.007 47.6596 33.4032 47.6596 32.6683C47.6596 32.1259 47.4669 31.6794 47.0908 31.3203C46.7147 30.9613 46.2326 30.7864 45.6285 30.7864H44.3234C44.0433 30.7864 43.8506 30.9789 43.8506 31.2506V36.4834C43.8506 36.7635 44.0433 36.956 44.3234 36.956C44.6036 36.956 44.7879 36.7635 44.7879 36.4834V34.567H45.4795C45.541 34.567 45.6815 34.5586 45.7252 34.5586L46.6794 36.6062C46.7753 36.8425 46.9335 36.956 47.1522 36.956C47.4232 36.956 47.6167 36.7635 47.6167 36.4834H47.615ZM45.5485 33.8321H44.7871V31.592H45.5578C46.2578 31.592 46.7223 32.0729 46.7223 32.712C46.7223 33.3511 46.2494 33.8321 45.5494 33.8321H45.5485Z" fill="#038C6D"/>
<path d="M51.0469 31.5382C51.6511 31.5382 51.9927 31.9494 52.0187 32.6061C52.0448 32.8946 52.1938 33.035 52.4655 33.035C52.7373 33.035 52.9207 32.8424 52.9207 32.554V32.5279C52.9207 31.9763 52.7457 31.539 52.4041 31.2069C52.0625 30.8655 51.6157 30.699 51.0553 30.699C50.495 30.699 50.0137 30.8739 49.6544 31.2329C49.2951 31.592 49.1201 32.073 49.1201 32.6768V35.0481C49.1201 36.2649 49.8816 36.9998 51.0377 36.9998C51.598 36.9998 52.0533 36.8249 52.3949 36.4835C52.7449 36.1337 52.9207 35.6788 52.9207 35.1095V35.0481C52.9207 34.7597 52.7365 34.5755 52.4655 34.5755C52.1946 34.5755 52.0448 34.7243 52.0187 35.022C52.0011 35.783 51.6771 36.1598 51.0469 36.1598C50.4167 36.1598 50.0575 35.7401 50.0575 35.0313V32.6684C50.0575 31.9595 50.4251 31.5399 51.0469 31.5399V31.5382Z" fill="#038C6D"/>
<path d="M56.205 30.7425C55.9164 30.7425 55.7237 30.8998 55.627 31.2235L54.0073 36.2731C53.9719 36.3782 53.9551 36.4573 53.9551 36.5178C53.9551 36.7718 54.1301 36.9551 54.3842 36.9551C54.6114 36.9551 54.7603 36.8239 54.8394 36.57L55.1987 35.3977H57.1777L57.5454 36.5876C57.6152 36.8323 57.7641 36.9551 58.0005 36.9551C58.2723 36.9551 58.4557 36.7709 58.4557 36.5002C58.4557 36.4304 58.4381 36.3513 58.412 36.2723L56.8007 31.2319C56.7039 30.9082 56.5028 30.7417 56.205 30.7417V30.7425ZM55.3905 34.6889L56.1789 32.0552L56.9757 34.6889H55.3905Z" fill="#038C6D"/>
<path d="M63.4797 34.8033V32.8693C63.4797 31.539 62.7267 30.7864 61.457 30.7864H60.0998C59.8196 30.7864 59.627 30.9789 59.627 31.2506V36.4397C59.627 36.7197 59.8196 36.9123 60.0998 36.9123H61.4309C62.7006 36.9123 63.4797 36.1336 63.4797 34.8033ZM60.5643 36.0807V31.618H61.4225C62.1495 31.618 62.5432 32.0729 62.5432 32.8869V34.8117C62.5432 35.6257 62.1495 36.0807 61.4225 36.0807H60.5643Z" fill="#038C6D"/>
<path d="M66.8754 36.9993C67.4618 36.9993 67.944 36.816 68.3024 36.4569C68.6701 36.0895 68.8544 35.5992 68.8544 34.9778V32.6939C68.8544 31.4603 68.0836 30.6985 66.893 30.6985C66.3066 30.6985 65.8253 30.8818 65.4568 31.2501C65.0975 31.6092 64.9141 32.0986 64.9141 32.72V35.0039C64.9141 36.2375 65.6848 36.9993 66.8754 36.9993ZM65.8514 32.7116C65.8514 31.9766 66.2452 31.5394 66.8846 31.5394C67.5241 31.5394 67.9179 31.9766 67.9179 32.7116V34.9871C67.9179 35.722 67.5241 36.1593 66.8846 36.1593C66.2452 36.1593 65.8514 35.722 65.8514 34.9871V32.7116Z" fill="#038C6D"/>
<path d="M6.30167 30.7425C6.01306 30.7425 5.82037 30.8998 5.72361 31.2235L4.10391 36.2731C4.06858 36.3782 4.05176 36.4573 4.05176 36.5178C4.05176 36.7718 4.22676 36.9551 4.48086 36.9551C4.70888 36.9551 4.85782 36.8239 4.93607 36.57L5.29535 35.3977H7.27433L7.64201 36.5876C7.71185 36.8323 7.86077 36.9551 8.0972 36.9551C8.36898 36.9551 8.55241 36.7709 8.55241 36.5002C8.55241 36.4304 8.53474 36.3513 8.50866 36.2723L6.89736 31.2319C6.80144 30.9082 6.59952 30.7417 6.30251 30.7417L6.30167 30.7425ZM5.48717 34.6889L6.27473 32.0552L7.07154 34.6889H5.48717Z" fill="#038C6D"/>
<path d="M13.0398 36.4833C13.0398 36.2386 12.8648 36.0629 12.6191 36.0629H10.8681V31.2059C10.8681 30.9343 10.6754 30.7417 10.4045 30.7417C10.1336 30.7417 9.93164 30.9343 9.93164 31.2059V36.4388C9.93164 36.7188 10.1243 36.9114 10.4045 36.9114H12.6199C12.8656 36.9114 13.0406 36.7364 13.0406 36.4825L13.0398 36.4833Z" fill="#038C6D"/>
<path d="M17.7232 36.9556C17.9949 36.9556 18.1876 36.763 18.1876 36.483V31.2064C18.1876 30.9348 17.9949 30.7422 17.7232 30.7422C17.4514 30.7422 17.2503 30.9348 17.2503 31.2064V33.28H15.2713V31.2064C15.2713 30.9348 15.0786 30.7422 14.8068 30.7422C14.5351 30.7422 14.334 30.9348 14.334 31.2064V36.483C14.334 36.763 14.5267 36.9556 14.8068 36.9556C15.087 36.9556 15.2713 36.763 15.2713 36.483V34.1293H17.2503V36.483C17.2503 36.763 17.443 36.9556 17.7232 36.9556Z" fill="#038C6D"/>
<path d="M21.6137 30.6985C21.0273 30.6985 20.5452 30.8818 20.1775 31.2501C19.8182 31.6092 19.6348 32.0986 19.6348 32.72V35.0039C19.6348 36.2375 20.4055 36.9993 21.5961 36.9993C22.1825 36.9993 22.6638 36.816 23.0231 36.4569C23.3908 36.0895 23.5742 35.5992 23.5742 34.9778V32.6939C23.5742 31.4603 22.8035 30.6985 21.6129 30.6985H21.6137ZM22.6386 34.9862C22.6386 35.7212 22.2448 36.1584 21.6053 36.1584C20.9659 36.1584 20.5721 35.7212 20.5721 34.9862V32.7108C20.5721 31.9758 20.9659 31.5385 21.6053 31.5385C22.2448 31.5385 22.6386 31.9758 22.6386 32.7108V34.9862Z" fill="#038C6D"/>
<path d="M1.94954 36.9993C2.2272 36.9993 2.42324 36.8026 2.42324 36.5166V31.5655H3.45143C3.71058 31.5655 3.8898 31.3863 3.8898 31.1273C3.8898 30.8683 3.71058 30.6985 3.45143 30.6985H0.384526C0.160713 30.7254 0 30.9037 0 31.1273C0 31.3687 0.160713 31.5385 0.384526 31.5655H1.46658V36.5166C1.46658 36.8026 1.66347 36.9993 1.94954 36.9993Z" fill="#038C6D"/>
<path d="M29.4732 33.7341C29.4732 33.6256 29.3933 33.5449 29.2839 33.5449C29.2132 33.5449 29.151 33.5828 29.1038 33.6584L28.6974 34.3152L28.1909 33.6963C28.5838 33.4028 28.7774 33.1051 28.7774 32.8075C28.7774 32.604 28.7067 32.4383 28.5695 32.3063C28.4324 32.1692 28.2481 32.1028 28.0252 32.1028C27.8022 32.1028 27.6137 32.1692 27.4673 32.3063C27.3209 32.4383 27.2494 32.609 27.2494 32.8125C27.2494 33.0538 27.363 33.3229 27.5952 33.6206C27.1644 33.9418 26.9658 34.2538 26.9658 34.6465C26.9658 34.8971 27.0466 35.1006 27.2115 35.2654C27.3773 35.426 27.5902 35.5067 27.8409 35.5067C28.2002 35.5067 28.4559 35.3503 28.7159 34.9913L29.0424 35.384C29.0946 35.4504 29.156 35.4832 29.2267 35.4832C29.3453 35.4832 29.421 35.4025 29.421 35.2898C29.421 35.2376 29.4025 35.1906 29.3638 35.1435L28.9574 34.6423L29.4261 33.8813C29.4589 33.8291 29.4732 33.7821 29.4732 33.735V33.7341ZM28.0302 32.4812C28.2338 32.4812 28.3659 32.6325 28.3659 32.826C28.3659 33.0387 28.2523 33.1993 27.9545 33.4028C27.7795 33.1808 27.6945 32.9866 27.6945 32.8117C27.6945 32.6225 27.8266 32.4803 28.0302 32.4803V32.4812ZM27.888 35.0905C27.6179 35.0905 27.4244 34.8828 27.4244 34.5944C27.4244 34.3631 27.5615 34.1403 27.8409 33.9275L28.4602 34.6742C28.2666 34.977 28.1152 35.0905 27.888 35.0905Z" fill="#038C6D"/>
<path d="M30.1652 31.1278C30.1652 30.8772 29.986 30.699 29.7268 30.699H26.6599C26.4361 30.7259 26.2754 30.9042 26.2754 31.1278C26.2754 31.3692 26.4361 31.539 26.6599 31.5659H29.7268C29.986 31.5659 30.1652 31.3868 30.1652 31.1278Z" fill="#038C6D"/>
<path d="M30.1652 36.4743C30.1652 36.2237 29.986 36.0454 29.7268 36.0454H26.6599C26.4361 36.0723 26.2754 36.2506 26.2754 36.4743C26.2754 36.7156 26.4361 36.8855 26.6599 36.9124H29.7268C29.986 36.9124 30.1652 36.7333 30.1652 36.4743Z" fill="#038C6D"/>
</svg>
