<svg width="233" height="182" viewBox="0 0 233 182" fill="none" xmlns="http://www.w3.org/2000/svg">
<g clip-path="url(#clip0_129_20364)">
<path d="M34.3137 141.489C35.9026 143.119 36.6971 145.382 36.6971 148.28V160.93H30.1087V149.172C30.1087 147.775 29.7405 146.695 29.0041 145.932C28.2678 145.169 27.2537 144.787 25.9618 144.787C24.67 144.787 23.6559 145.169 22.9195 145.932C22.1832 146.695 21.815 147.775 21.815 149.172V160.93H15.2265V149.172C15.2265 147.775 14.8584 146.695 14.122 145.932C13.3857 145.169 12.3716 144.787 11.0797 144.787C9.78785 144.787 8.77375 145.169 8.0374 145.932C7.30104 146.695 6.93286 147.775 6.93286 149.172V160.93H0.305664V139.277H6.93286V141.994C7.60463 141.088 8.48309 140.37 9.56824 139.84C10.6534 139.31 11.8807 139.044 13.25 139.044C14.8777 139.044 16.3311 139.394 17.61 140.092C18.8889 140.791 19.8901 141.787 20.6136 143.08C21.3628 141.89 22.3834 140.92 23.6753 140.17C24.9671 139.42 26.3752 139.044 27.8996 139.044C30.5867 139.044 32.7247 139.859 34.3137 141.489Z" fill="white"/>
<path d="M61.3583 151.694H46.3599C46.4633 153.04 46.896 154.068 47.6582 154.779C48.4204 155.491 49.357 155.846 50.468 155.846C52.1216 155.846 53.2713 155.148 53.9173 153.751H60.9708C60.609 155.174 59.9567 156.454 59.0136 157.593C58.0706 158.731 56.8885 159.623 55.4675 160.27C54.0464 160.917 52.4575 161.24 50.7005 161.24C48.5819 161.24 46.6958 160.787 45.0422 159.882C43.3887 158.976 42.0968 157.683 41.1667 156.002C40.2365 154.32 39.7715 152.354 39.7715 150.103C39.7715 147.853 40.2301 145.887 41.1473 144.205C42.0645 142.524 43.3499 141.23 45.0035 140.325C46.657 139.42 48.5561 138.967 50.7005 138.967C52.845 138.967 54.6536 139.407 56.2813 140.286C57.9091 141.166 59.1816 142.42 60.0988 144.05C61.016 145.68 61.4746 147.581 61.4746 149.754C61.4746 150.375 61.4358 151.022 61.3583 151.694ZM54.6859 148.008C54.6859 146.87 54.2984 145.964 53.5232 145.292C52.7481 144.619 51.7792 144.283 50.6166 144.283C49.4539 144.283 48.569 144.606 47.8068 145.253C47.0446 145.9 46.5731 146.818 46.3922 148.008H54.6859Z" fill="white"/>
<path d="M103.595 155.303V160.93H100.223C97.8205 160.93 95.9473 160.341 94.6038 159.164C93.2603 157.987 92.5885 156.066 92.5885 153.402V144.787H89.9531V139.277H92.5885V134H99.2157V139.277H103.556V144.787H99.2157V153.479C99.2157 154.126 99.3707 154.592 99.6808 154.876C99.9908 155.161 100.508 155.303 101.231 155.303H103.595Z" fill="white"/>
<path d="M65.2342 144.199C66.0739 142.517 67.2172 141.224 68.664 140.319C70.1109 139.413 71.7257 138.96 73.5085 138.96C75.0329 138.96 76.3699 139.271 77.5197 139.892C78.6694 140.513 79.5543 141.327 80.1744 142.336V139.271H86.8016V160.923H80.1744V157.858C79.5285 158.867 78.6307 159.682 77.4809 160.302C76.3312 160.923 74.9941 161.234 73.4697 161.234C71.7128 161.234 70.1109 160.775 68.664 159.856C67.2172 158.938 66.0739 157.631 65.2342 155.937C64.3945 154.243 63.9746 152.283 63.9746 150.058C63.9746 147.834 64.3945 145.88 65.2342 144.199ZM78.7986 146.178C77.8814 145.221 76.7639 144.742 75.4462 144.742C74.1286 144.742 73.0111 145.214 72.0939 146.159C71.1767 147.103 70.7181 148.403 70.7181 150.058C70.7181 151.714 71.1767 153.027 72.0939 153.997C73.0111 154.967 74.1286 155.452 75.4462 155.452C76.7639 155.452 77.8814 154.973 78.7986 154.016C79.7158 153.059 80.1744 151.753 80.1744 150.097C80.1744 148.441 79.7158 147.135 78.7986 146.178Z" fill="white"/>
<path d="M109.945 144.496C110.823 142.854 112.031 141.58 113.568 140.674C115.106 139.769 116.817 139.316 118.703 139.316C120.59 139.316 122.178 139.717 123.548 140.519C124.917 141.321 125.938 142.33 126.61 143.546V139.665H130.175V160.93H126.61V156.972C125.912 158.213 124.872 159.242 123.49 160.057C122.107 160.872 120.499 161.279 118.665 161.279C116.83 161.279 115.073 160.813 113.549 159.882C112.025 158.951 110.823 157.644 109.945 155.963C109.066 154.281 108.627 152.367 108.627 150.22C108.627 148.073 109.066 146.139 109.945 144.496ZM125.641 146.068C124.995 144.878 124.123 143.966 123.025 143.332C121.927 142.699 120.719 142.382 119.401 142.382C118.083 142.382 116.882 142.692 115.797 143.313C114.712 143.934 113.846 144.839 113.2 146.029C112.554 147.219 112.231 148.616 112.231 150.22C112.231 151.824 112.554 153.266 113.2 154.469C113.846 155.672 114.712 156.59 115.797 157.224C116.882 157.858 118.083 158.175 119.401 158.175C120.719 158.175 121.927 157.858 123.025 157.224C124.123 156.59 124.995 155.672 125.641 154.469C126.287 153.266 126.61 151.863 126.61 150.259C126.61 148.655 126.287 147.258 125.641 146.068Z" fill="#CEF17B"/>
<path d="M138.779 158.019H149.204V160.93H134.748V158.019L145.057 142.537H134.826V139.665H149.126V142.537L138.779 158.019Z" fill="#CEF17B"/>
<path d="M157.635 159.921C156.02 159.015 154.754 157.728 153.837 156.06C152.92 154.391 152.461 152.457 152.461 150.259C152.461 148.06 152.932 146.165 153.876 144.496C154.819 142.828 156.104 141.547 157.732 140.655C159.359 139.762 161.181 139.316 163.196 139.316C165.212 139.316 167.033 139.762 168.661 140.655C170.288 141.547 171.574 142.821 172.517 144.477C173.46 146.132 173.932 148.06 173.932 150.259C173.932 152.457 173.447 154.391 172.478 156.06C171.509 157.728 170.198 159.015 168.544 159.921C166.891 160.826 165.056 161.279 163.041 161.279C161.026 161.279 159.25 160.826 157.635 159.921ZM166.607 157.282C167.718 156.687 168.616 155.794 169.3 154.605C169.985 153.415 170.327 151.966 170.327 150.259C170.327 148.551 169.991 147.102 169.32 145.913C168.648 144.723 167.769 143.837 166.684 143.254C165.599 142.672 164.423 142.381 163.157 142.381C161.891 142.381 160.684 142.672 159.611 143.254C158.539 143.837 157.68 144.723 157.034 145.913C156.388 147.102 156.065 148.551 156.065 150.259C156.065 151.966 156.382 153.453 157.015 154.643C157.648 155.833 158.494 156.719 159.553 157.301C160.613 157.883 161.775 158.174 163.041 158.174C164.307 158.174 165.496 157.877 166.607 157.282Z" fill="#CEF17B"/>
<path d="M184.764 140.286C185.913 139.614 187.315 139.277 188.969 139.277V142.925H188.038C184.085 142.925 182.109 145.072 182.109 149.366V160.93H178.582V139.665H182.109V143.119C182.729 141.903 183.614 140.959 184.764 140.286Z" fill="#CEF17B"/>
<path d="M212.298 151.617H195.323C195.452 153.712 196.169 155.348 197.474 156.526C198.779 157.703 200.361 158.291 202.221 158.291C203.746 158.291 205.018 157.935 206.039 157.224C207.059 156.513 207.776 155.562 208.19 154.372H211.988C211.419 156.416 210.283 158.078 208.577 159.358C206.872 160.639 204.754 161.279 202.221 161.279C200.206 161.279 198.404 160.826 196.815 159.921C195.226 159.015 193.979 157.728 193.075 156.06C192.171 154.391 191.719 152.458 191.719 150.259C191.719 148.06 192.158 146.133 193.036 144.477C193.915 142.821 195.149 141.547 196.738 140.655C198.327 139.762 200.155 139.316 202.221 139.316C204.288 139.316 206.02 139.756 207.57 140.635C209.12 141.515 210.315 142.724 211.155 144.264C211.994 145.803 212.414 147.543 212.414 149.483C212.414 150.155 212.375 150.867 212.298 151.617ZM207.88 145.273C207.286 144.302 206.478 143.565 205.458 143.061C204.437 142.556 203.307 142.304 202.066 142.304C200.284 142.304 198.766 142.873 197.513 144.011C196.26 145.15 195.543 146.728 195.362 148.745H208.771C208.771 147.4 208.474 146.243 207.88 145.273Z" fill="#CEF17B"/>
<path d="M220.204 160.445C218.912 159.889 217.892 159.112 217.143 158.116C216.393 157.121 215.98 155.976 215.902 154.682H219.545C219.649 155.743 220.146 156.61 221.037 157.282C221.929 157.955 223.098 158.291 224.545 158.291C225.888 158.291 226.948 157.994 227.723 157.399C228.498 156.804 228.885 156.053 228.885 155.148C228.885 154.243 228.472 153.525 227.645 153.072C226.818 152.619 225.54 152.173 223.808 151.733C222.232 151.319 220.947 150.899 219.952 150.472C218.958 150.045 218.105 149.412 217.394 148.571C216.684 147.73 216.329 146.624 216.329 145.253C216.329 144.167 216.652 143.171 217.298 142.265C217.943 141.36 218.861 140.642 220.049 140.112C221.238 139.581 222.594 139.316 224.119 139.316C226.47 139.316 228.369 139.911 229.816 141.101C231.262 142.291 232.038 143.921 232.141 145.99H228.614C228.537 144.878 228.091 143.986 227.277 143.313C226.463 142.64 225.372 142.304 224.002 142.304C222.736 142.304 221.729 142.576 220.979 143.119C220.23 143.662 219.855 144.374 219.855 145.253C219.855 145.952 220.081 146.527 220.534 146.98C220.986 147.433 221.554 147.795 222.239 148.066C222.924 148.338 223.873 148.642 225.087 148.978C226.612 149.392 227.852 149.8 228.808 150.201C229.764 150.602 230.584 151.203 231.269 152.005C231.954 152.807 232.309 153.855 232.335 155.148C232.335 156.312 232.012 157.36 231.366 158.291C230.72 159.222 229.809 159.953 228.634 160.484C227.458 161.014 226.108 161.279 224.584 161.279C222.956 161.279 221.496 161.001 220.204 160.445Z" fill="#CEF17B"/>
<path d="M125.402 178.553C124.917 178.281 124.536 177.893 124.265 177.395C123.987 176.897 123.852 176.315 123.852 175.656C123.852 174.996 123.994 174.427 124.278 173.929C124.562 173.431 124.95 173.043 125.434 172.778C125.919 172.513 126.468 172.377 127.075 172.377C127.682 172.377 128.224 172.513 128.715 172.778C129.206 173.043 129.587 173.431 129.872 173.922C130.156 174.414 130.298 174.996 130.298 175.656C130.298 176.315 130.156 176.897 129.865 177.395C129.574 177.893 129.18 178.281 128.683 178.553C128.186 178.825 127.637 178.96 127.03 178.96C126.422 178.96 125.893 178.825 125.408 178.553H125.402ZM128.095 177.764C128.431 177.583 128.696 177.318 128.903 176.962C129.109 176.606 129.213 176.173 129.213 175.656C129.213 175.138 129.109 174.711 128.909 174.349C128.709 173.994 128.444 173.728 128.121 173.554C127.798 173.379 127.443 173.295 127.062 173.295C126.681 173.295 126.319 173.379 125.996 173.554C125.673 173.728 125.415 173.994 125.221 174.349C125.027 174.705 124.93 175.138 124.93 175.656C124.93 176.173 125.027 176.613 125.214 176.968C125.402 177.324 125.66 177.589 125.977 177.764C126.293 177.939 126.642 178.023 127.023 178.023C127.404 178.023 127.759 177.932 128.095 177.757V177.764Z" fill="white"/>
<path d="M135.73 178.715C135.343 178.546 135.039 178.314 134.813 178.016C134.587 177.719 134.464 177.376 134.438 176.988H135.53C135.562 177.305 135.711 177.563 135.976 177.77C136.241 177.971 136.596 178.074 137.029 178.074C137.429 178.074 137.752 177.984 137.985 177.809C138.217 177.635 138.333 177.408 138.333 177.137C138.333 176.865 138.211 176.652 137.959 176.516C137.707 176.38 137.326 176.244 136.809 176.115C136.338 175.992 135.95 175.863 135.653 175.74C135.356 175.61 135.097 175.423 134.884 175.171C134.671 174.918 134.561 174.589 134.561 174.175C134.561 173.851 134.658 173.547 134.852 173.276C135.046 173.004 135.323 172.791 135.679 172.629C136.034 172.467 136.441 172.39 136.899 172.39C137.604 172.39 138.172 172.571 138.611 172.926C139.044 173.282 139.276 173.774 139.309 174.394H138.249C138.224 174.058 138.094 173.793 137.849 173.593C137.604 173.392 137.281 173.289 136.867 173.289C136.486 173.289 136.182 173.373 135.963 173.534C135.737 173.696 135.627 173.909 135.627 174.175C135.627 174.382 135.698 174.556 135.834 174.692C135.969 174.828 136.137 174.938 136.344 175.015C136.551 175.099 136.835 175.19 137.197 175.287C137.655 175.41 138.023 175.533 138.314 175.656C138.598 175.778 138.85 175.953 139.05 176.199C139.257 176.438 139.36 176.755 139.367 177.143C139.367 177.492 139.27 177.809 139.076 178.087C138.882 178.365 138.611 178.585 138.256 178.747C137.901 178.909 137.5 178.986 137.042 178.986C136.551 178.986 136.118 178.902 135.73 178.734V178.715Z" fill="white"/>
<path d="M140.859 173.929C141.124 173.437 141.486 173.056 141.945 172.784C142.403 172.513 142.92 172.377 143.482 172.377C144.044 172.377 144.522 172.5 144.935 172.739C145.349 172.978 145.652 173.282 145.852 173.644V172.48H146.925V178.857H145.852V177.667C145.646 178.042 145.329 178.346 144.916 178.592C144.502 178.837 144.018 178.96 143.469 178.96C142.92 178.96 142.39 178.818 141.932 178.54C141.473 178.262 141.111 177.867 140.853 177.363C140.595 176.859 140.459 176.283 140.459 175.643C140.459 175.002 140.588 174.42 140.853 173.922L140.859 173.929ZM145.568 174.401C145.374 174.045 145.11 173.767 144.787 173.58C144.464 173.392 144.096 173.295 143.702 173.295C143.308 173.295 142.946 173.386 142.623 173.573C142.3 173.761 142.035 174.032 141.841 174.388C141.647 174.744 141.551 175.164 141.551 175.643C141.551 176.121 141.647 176.555 141.841 176.917C142.035 177.279 142.293 177.551 142.623 177.745C142.946 177.932 143.308 178.029 143.702 178.029C144.096 178.029 144.457 177.932 144.787 177.745C145.116 177.557 145.381 177.279 145.568 176.917C145.756 176.555 145.859 176.134 145.859 175.656C145.859 175.177 145.762 174.757 145.568 174.401Z" fill="white"/>
<path d="M150.728 172.733C151.148 172.493 151.626 172.37 152.156 172.37C152.731 172.37 153.247 172.506 153.699 172.778C154.158 173.049 154.52 173.431 154.778 173.923C155.043 174.414 155.172 174.99 155.172 175.643C155.172 176.296 155.043 176.859 154.778 177.363C154.513 177.868 154.152 178.262 153.693 178.54C153.234 178.818 152.718 178.961 152.156 178.961C151.594 178.961 151.122 178.838 150.709 178.598C150.295 178.359 149.985 178.049 149.772 177.68V178.857H148.713V170.243H149.772V173.664C149.985 173.282 150.308 172.972 150.728 172.733ZM153.809 174.388C153.615 174.032 153.351 173.761 153.028 173.573C152.705 173.386 152.337 173.295 151.943 173.295C151.549 173.295 151.193 173.392 150.864 173.58C150.534 173.767 150.27 174.045 150.076 174.408C149.876 174.77 149.779 175.184 149.779 175.656C149.779 176.128 149.876 176.561 150.076 176.917C150.276 177.279 150.534 177.551 150.864 177.745C151.193 177.939 151.549 178.029 151.943 178.029C152.337 178.029 152.698 177.932 153.028 177.745C153.357 177.557 153.622 177.279 153.809 176.917C153.997 176.555 154.1 176.134 154.1 175.643C154.1 175.151 154.003 174.744 153.809 174.388Z" fill="white"/>
<path d="M157.736 178.553C157.251 178.281 156.87 177.893 156.599 177.395C156.321 176.897 156.186 176.315 156.186 175.656C156.186 174.996 156.328 174.427 156.612 173.929C156.896 173.431 157.284 173.043 157.768 172.778C158.253 172.513 158.802 172.377 159.409 172.377C160.016 172.377 160.558 172.513 161.049 172.778C161.54 173.043 161.921 173.431 162.206 173.922C162.49 174.414 162.632 174.996 162.632 175.656C162.632 176.315 162.49 176.897 162.199 177.395C161.908 177.893 161.514 178.281 161.017 178.553C160.52 178.825 159.971 178.96 159.364 178.96C158.756 178.96 158.227 178.825 157.742 178.553H157.736ZM160.423 177.764C160.759 177.583 161.024 177.318 161.23 176.962C161.437 176.606 161.54 176.173 161.54 175.656C161.54 175.138 161.437 174.711 161.237 174.349C161.036 173.994 160.772 173.728 160.449 173.554C160.126 173.379 159.77 173.295 159.389 173.295C159.008 173.295 158.647 173.379 158.324 173.554C158.001 173.728 157.742 173.994 157.548 174.349C157.355 174.705 157.258 175.138 157.258 175.656C157.258 176.173 157.355 176.613 157.542 176.968C157.729 177.324 157.988 177.589 158.304 177.764C158.621 177.939 158.969 178.023 159.351 178.023C159.732 178.023 160.087 177.932 160.423 177.757V177.764Z" fill="white"/>
<path d="M165.875 172.668C166.218 172.467 166.644 172.364 167.135 172.364V173.457H166.857C165.669 173.457 165.081 174.103 165.081 175.39V178.857H164.021V172.48H165.081V173.515C165.268 173.153 165.533 172.868 165.875 172.668Z" fill="white"/>
<path d="M171.462 173.929C171.727 173.437 172.089 173.056 172.548 172.784C173.006 172.513 173.523 172.377 174.098 172.377C174.595 172.377 175.054 172.493 175.48 172.72C175.906 172.946 176.229 173.25 176.455 173.625V170.249H177.528V178.863H176.455V177.667C176.249 178.049 175.939 178.359 175.525 178.605C175.112 178.85 174.634 178.973 174.085 178.973C173.536 178.973 173.006 178.831 172.548 178.553C172.089 178.275 171.721 177.88 171.462 177.376C171.204 176.871 171.068 176.296 171.068 175.656C171.068 175.015 171.198 174.433 171.462 173.935V173.929ZM176.171 174.401C175.977 174.045 175.713 173.767 175.39 173.58C175.067 173.392 174.698 173.295 174.304 173.295C173.91 173.295 173.549 173.386 173.226 173.573C172.903 173.761 172.638 174.032 172.444 174.388C172.25 174.744 172.154 175.164 172.154 175.643C172.154 176.121 172.25 176.555 172.444 176.917C172.638 177.279 172.896 177.551 173.226 177.745C173.549 177.932 173.91 178.029 174.304 178.029C174.698 178.029 175.06 177.932 175.39 177.745C175.719 177.557 175.984 177.279 176.171 176.917C176.358 176.555 176.462 176.134 176.462 175.656C176.462 175.177 176.365 174.757 176.171 174.401Z" fill="white"/>
<path d="M179.318 173.929C179.583 173.437 179.945 173.056 180.404 172.784C180.862 172.513 181.379 172.377 181.941 172.377C182.503 172.377 182.981 172.5 183.394 172.739C183.808 172.978 184.111 173.282 184.311 173.644V172.48H185.384V178.857H184.311V177.667C184.105 178.042 183.788 178.346 183.375 178.592C182.961 178.837 182.477 178.96 181.928 178.96C181.379 178.96 180.849 178.818 180.391 178.54C179.932 178.262 179.57 177.867 179.312 177.363C179.054 176.859 178.918 176.283 178.918 175.643C178.918 175.002 179.047 174.42 179.312 173.922L179.318 173.929ZM184.027 174.401C183.833 174.045 183.569 173.767 183.246 173.58C182.923 173.392 182.555 173.295 182.161 173.295C181.766 173.295 181.405 173.386 181.082 173.573C180.759 173.761 180.494 174.032 180.3 174.388C180.106 174.744 180.01 175.164 180.01 175.643C180.01 176.121 180.106 176.555 180.3 176.917C180.494 177.279 180.752 177.551 181.082 177.745C181.405 177.932 181.766 178.029 182.161 178.029C182.555 178.029 182.916 177.932 183.246 177.745C183.575 177.557 183.84 177.279 184.027 176.917C184.215 176.555 184.318 176.134 184.318 175.656C184.318 175.177 184.221 174.757 184.027 174.401Z" fill="white"/>
<path d="M191.441 178.553C190.956 178.281 190.575 177.893 190.304 177.395C190.026 176.897 189.891 176.315 189.891 175.656C189.891 174.996 190.033 174.427 190.317 173.929C190.601 173.431 190.989 173.043 191.473 172.778C191.958 172.513 192.507 172.377 193.114 172.377C193.721 172.377 194.264 172.513 194.754 172.778C195.245 173.043 195.626 173.431 195.911 173.922C196.195 174.414 196.337 174.996 196.337 175.656C196.337 176.315 196.195 176.897 195.904 177.395C195.614 177.893 195.22 178.281 194.722 178.553C194.225 178.825 193.676 178.96 193.069 178.96C192.461 178.96 191.932 178.825 191.447 178.553H191.441ZM194.128 177.764C194.464 177.583 194.729 177.318 194.935 176.962C195.142 176.606 195.245 176.173 195.245 175.656C195.245 175.138 195.142 174.711 194.942 174.349C194.742 173.994 194.477 173.728 194.154 173.554C193.831 173.379 193.476 173.295 193.094 173.295C192.713 173.295 192.352 173.379 192.029 173.554C191.706 173.728 191.447 173.994 191.254 174.349C191.06 174.705 190.963 175.138 190.963 175.656C190.963 176.173 191.06 176.613 191.247 176.968C191.434 177.324 191.693 177.589 192.009 177.764C192.326 177.939 192.675 178.023 193.056 178.023C193.437 178.023 193.792 177.932 194.128 177.757V177.764Z" fill="white"/>
<path d="M199.58 172.668C199.923 172.467 200.349 172.364 200.84 172.364V173.457H200.562C199.374 173.457 198.786 174.103 198.786 175.39V178.857H197.727V172.48H198.786V173.515C198.973 173.153 199.238 172.868 199.58 172.668Z" fill="white"/>
<path d="M202.093 171.232C201.951 171.09 201.887 170.922 201.887 170.721C201.887 170.521 201.958 170.346 202.093 170.21C202.236 170.068 202.403 170.003 202.604 170.003C202.804 170.003 202.959 170.074 203.095 170.21C203.23 170.346 203.295 170.521 203.295 170.721C203.295 170.922 203.23 171.096 203.095 171.232C202.959 171.368 202.797 171.439 202.604 171.439C202.41 171.439 202.229 171.368 202.093 171.232ZM203.12 172.48V178.857H202.061V172.48H203.12Z" fill="white"/>
<path d="M208.997 172.732C209.41 172.972 209.72 173.276 209.92 173.638V172.474H210.992V178.993C210.992 179.575 210.87 180.092 210.618 180.545C210.366 180.998 210.017 181.353 209.552 181.612C209.093 181.871 208.557 181.994 207.944 181.994C207.104 181.994 206.406 181.793 205.851 181.399C205.295 181.004 204.966 180.461 204.863 179.782H205.909C206.025 180.17 206.264 180.48 206.632 180.719C206.994 180.959 207.433 181.075 207.944 181.075C208.525 181.075 208.997 180.894 209.371 180.525C209.739 180.163 209.92 179.646 209.92 178.986V177.648C209.714 178.023 209.403 178.333 208.99 178.579C208.577 178.825 208.099 178.954 207.55 178.954C207.001 178.954 206.471 178.812 206.012 178.534C205.554 178.255 205.186 177.861 204.927 177.356C204.669 176.852 204.533 176.276 204.533 175.636C204.533 174.996 204.662 174.414 204.927 173.916C205.192 173.424 205.554 173.043 206.012 172.771C206.471 172.5 206.988 172.364 207.55 172.364C208.112 172.364 208.583 172.487 208.997 172.726V172.732ZM209.63 174.401C209.436 174.045 209.171 173.767 208.848 173.58C208.525 173.392 208.157 173.295 207.763 173.295C207.369 173.295 207.007 173.386 206.684 173.573C206.361 173.761 206.096 174.032 205.903 174.388C205.709 174.744 205.612 175.164 205.612 175.643C205.612 176.121 205.709 176.555 205.903 176.917C206.096 177.279 206.355 177.551 206.684 177.745C207.007 177.932 207.369 178.029 207.763 178.029C208.157 178.029 208.519 177.932 208.848 177.745C209.177 177.557 209.442 177.279 209.63 176.917C209.817 176.555 209.92 176.134 209.92 175.656C209.92 175.177 209.823 174.757 209.63 174.401Z" fill="white"/>
<path d="M218.557 176.063H213.467C213.506 176.69 213.719 177.182 214.113 177.538C214.507 177.893 214.979 178.068 215.541 178.068C215.999 178.068 216.38 177.958 216.684 177.745C216.988 177.531 217.207 177.247 217.33 176.891H218.467C218.299 177.505 217.957 178.003 217.446 178.385C216.936 178.766 216.297 178.96 215.541 178.96C214.934 178.96 214.397 178.825 213.92 178.553C213.442 178.281 213.067 177.893 212.796 177.395C212.524 176.897 212.389 176.315 212.389 175.656C212.389 174.996 212.518 174.42 212.783 173.922C213.048 173.424 213.416 173.043 213.894 172.778C214.372 172.513 214.921 172.377 215.541 172.377C216.161 172.377 216.678 172.506 217.143 172.771C217.608 173.036 217.969 173.399 218.221 173.858C218.473 174.317 218.596 174.841 218.596 175.423C218.596 175.623 218.583 175.837 218.564 176.063H218.557ZM217.233 174.162C217.052 173.871 216.813 173.651 216.51 173.496C216.206 173.347 215.864 173.269 215.489 173.269C214.953 173.269 214.501 173.437 214.12 173.78C213.739 174.123 213.525 174.595 213.474 175.203H217.498C217.498 174.802 217.408 174.453 217.233 174.162Z" fill="white"/>
<path d="M228.976 172.668C229.363 172.875 229.667 173.185 229.893 173.593C230.119 174.007 230.229 174.505 230.229 175.093V178.851H229.182V175.242C229.182 174.608 229.027 174.117 228.711 173.78C228.394 173.444 227.974 173.276 227.438 173.276C226.902 173.276 226.45 173.45 226.127 173.806C225.804 174.162 225.636 174.666 225.636 175.339V178.857H224.59V175.248C224.59 174.614 224.435 174.123 224.118 173.787C223.802 173.45 223.382 173.282 222.846 173.282C222.31 173.282 221.858 173.457 221.535 173.813C221.212 174.168 221.044 174.673 221.044 175.345V178.863H219.984V172.487H221.044V173.405C221.25 173.069 221.535 172.817 221.883 172.636C222.232 172.454 222.626 172.37 223.053 172.37C223.589 172.37 224.06 172.493 224.474 172.733C224.887 172.972 225.191 173.328 225.391 173.793C225.572 173.34 225.862 172.991 226.276 172.745C226.689 172.5 227.141 172.37 227.645 172.37C228.149 172.37 228.582 172.474 228.969 172.681L228.976 172.668Z" fill="white"/>
<path d="M231.793 178.721C231.651 178.579 231.586 178.411 231.586 178.21C231.586 178.01 231.657 177.835 231.793 177.699C231.928 177.563 232.103 177.492 232.303 177.492C232.503 177.492 232.658 177.563 232.794 177.699C232.929 177.835 233.001 178.01 233.001 178.21C233.001 178.411 232.929 178.585 232.794 178.721C232.658 178.857 232.497 178.928 232.303 178.928C232.109 178.928 231.928 178.857 231.793 178.721Z" fill="white"/>
</g>
<g clip-path="url(#clip1_129_20364)">
<path d="M168.449 41.3361C172.964 14.2253 156.455 -3.44837 128.74 0.525106C123.188 27.491 141.665 44.668 168.449 41.3361Z" fill="#CEF17B"/>
<path d="M76.7871 41.3362C78.6514 41.5432 80.4743 41.6466 82.235 41.6673C106.553 42.1847 121.965 26.2494 117.035 0.483896C114.508 0.132078 112.084 -0.0541992 109.743 -0.0541992C109.723 -0.0541992 109.702 -0.0541992 109.681 -0.0541992H81.5721C78.5064 -0.0541992 76 2.42923 76 5.51282V33.4513C76 33.4513 76 33.5755 76 33.6376C76.0621 36.121 76.29 38.6872 76.7664 41.3569L76.7871 41.3362Z" fill="#CEF17B"/>
<path d="M128.675 93.7157C155.003 98.1237 174.661 79.4774 167.431 53.2979C140.897 49.2624 123.559 67.7225 128.675 93.7157Z" fill="#CEF17B"/>
<path d="M77.514 53.2975C70.2848 79.477 89.9425 98.1233 116.27 93.7153C121.407 67.7221 104.049 49.2413 77.514 53.2975Z" fill="#CEF17B"/>
<path d="M122.67 59.1548C129.306 59.1548 134.685 53.7808 134.685 47.1516C134.685 40.5224 129.306 35.1484 122.67 35.1484C116.035 35.1484 110.656 40.5224 110.656 47.1516C110.656 53.7808 116.035 59.1548 122.67 59.1548Z" fill="white"/>
</g>
<defs>
<clipPath id="clip0_129_20364">
<rect width="233" height="48" fill="white" transform="translate(0 134)"/>
</clipPath>
<clipPath id="clip1_129_20364">
<rect width="93" height="96" fill="white" transform="translate(76)"/>
</clipPath>
</defs>
</svg>
